<svg width="623" height="237" viewBox="0 0 623 237" fill="none" xmlns="http://www.w3.org/2000/svg">
<g clip-path="url(#clip0_39_31)">
<path d="M175.68 196.16C167.88 196.16 161.82 193.88 157.5 189.32C153.3 184.64 151.2 177.92 151.2 169.16V132.8C151.2 128.12 150.96 124.64 150.48 122.36C150.12 120.08 148.98 118.46 147.06 117.5C145.26 116.54 142.14 115.76 137.7 115.16C137.1 113.6 137.1 112.1 137.7 110.66C142.86 109.94 147.78 109.16 152.46 108.32C157.26 107.48 162.06 106.46 166.86 105.26L169.56 106.52C169.44 110.24 169.32 113.78 169.2 117.14C169.2 120.38 169.2 123.44 169.2 126.32V162.68C169.2 169.88 170.28 175.28 172.44 178.88C174.72 182.36 179.1 184.1 185.58 184.1C189.18 184.1 192.54 183.32 195.66 181.76C198.9 180.08 201.96 177.68 204.84 174.56V132.8C204.84 128.12 204.6 124.64 204.12 122.36C203.76 120.08 202.62 118.46 200.7 117.5C198.9 116.54 195.78 115.76 191.34 115.16C190.98 113.6 190.98 112.1 191.34 110.66C196.5 109.94 201.42 109.16 206.1 108.32C210.9 107.48 215.76 106.46 220.68 105.26L223.38 106.52C223.26 110.24 223.14 113.78 223.02 117.14C223.02 120.38 223.02 123.44 223.02 126.32V172.94C223.02 176.54 223.2 179.24 223.56 181.04C224.04 182.84 225.24 184.16 227.16 185C229.2 185.72 232.5 186.32 237.06 186.8C237.18 188.24 237.18 189.74 237.06 191.3C231.9 191.78 226.98 192.38 222.3 193.1C217.62 193.82 213.06 194.72 208.62 195.8L205.74 194.54L205.38 181.94C195.42 191.42 185.52 196.16 175.68 196.16ZM251.541 194.18C251.421 193.7 251.361 193.22 251.361 192.74C251.361 192.26 251.361 191.78 251.361 191.3C251.361 190.82 251.361 190.4 251.361 190.04C251.361 189.56 251.421 189.08 251.541 188.6C255.621 188.36 258.621 188 260.541 187.52C262.461 186.92 263.721 185.72 264.321 183.92C264.921 182.12 265.221 179.24 265.221 175.28V85.1C265.221 81.38 264.861 78.62 264.141 76.82C263.541 74.9 262.161 73.58 260.001 72.86C257.961 72.02 254.841 71.42 250.641 71.06C250.521 70.58 250.461 70.16 250.461 69.8C250.461 69.44 250.461 69.08 250.461 68.72C250.461 68.24 250.461 67.82 250.461 67.46C250.461 67.1 250.521 66.68 250.641 66.2C255.441 65.6 260.361 64.7 265.401 63.5C270.441 62.18 275.601 60.38 280.881 58.1L283.941 59.18C283.821 61.82 283.701 64.82 283.581 68.18C283.581 71.54 283.581 75.2 283.581 79.16V145.94C285.021 145.94 286.221 145.7 287.181 145.22C288.141 144.74 288.921 144.26 289.521 143.78C289.761 143.54 290.241 143.12 290.961 142.52C291.681 141.8 292.941 140.54 294.741 138.74C296.541 136.94 299.121 134.24 302.481 130.64C305.601 127.16 308.061 124.46 309.861 122.54C311.781 120.5 312.741 118.82 312.741 117.5C312.741 116.54 311.901 115.76 310.221 115.16C308.661 114.44 306.501 114.02 303.741 113.9C303.621 113.42 303.561 112.94 303.561 112.46C303.561 111.98 303.561 111.5 303.561 111.02C303.561 110.54 303.561 110.06 303.561 109.58C303.561 109.1 303.621 108.62 303.741 108.14C306.141 108.14 309.141 108.2 312.741 108.32C316.461 108.44 319.761 108.5 322.641 108.5C324.081 108.5 326.121 108.5 328.761 108.5C331.521 108.38 334.281 108.32 337.041 108.32C339.801 108.32 341.841 108.32 343.161 108.32C343.281 108.8 343.341 109.28 343.341 109.76C343.461 110.24 343.521 110.72 343.521 111.2C343.521 111.68 343.461 112.16 343.341 112.64C343.341 113 343.281 113.42 343.161 113.9C336.921 114.02 331.641 115.58 327.321 118.58C323.001 121.46 318.861 124.88 314.901 128.84L301.941 141.8L326.781 174.56C329.421 178.04 331.581 180.8 333.261 182.84C335.061 184.76 336.981 186.14 339.021 186.98C341.061 187.82 343.881 188.36 347.481 188.6C347.721 190.28 347.721 192.14 347.481 194.18C345.921 194.18 343.581 194.12 340.461 194C337.461 193.88 332.721 193.82 326.241 193.82C325.281 193.82 323.841 193.82 321.921 193.82C320.001 193.82 318.201 193.94 316.521 194.18C316.521 192.86 315.801 191.06 314.361 188.78C312.921 186.38 311.781 184.64 310.941 183.56C310.581 182.96 309.681 181.7 308.241 179.78C306.801 177.74 305.061 175.4 303.021 172.76C301.101 170 299.121 167.24 297.081 164.48C295.041 161.6 293.181 159.08 291.501 156.92C290.181 155.12 288.921 153.74 287.721 152.78C286.641 151.7 285.261 151.16 283.581 151.16V173.48C283.581 178.16 283.761 181.52 284.121 183.56C284.601 185.6 285.621 186.92 287.181 187.52C288.861 188 291.381 188.36 294.741 188.6C294.981 190.4 294.981 192.26 294.741 194.18C291.621 194.18 288.321 194.12 284.841 194C281.481 193.88 277.821 193.82 273.861 193.82C270.021 193.82 266.241 193.88 262.521 194C258.801 194.12 255.141 194.18 251.541 194.18ZM400.916 196.16C392.156 196.16 384.476 194.3 377.876 190.58C371.396 186.74 366.356 181.52 362.756 174.92C359.156 168.2 357.356 160.52 357.356 151.88C357.356 142.52 359.216 134.36 362.936 127.4C366.776 120.44 372.116 115.04 378.956 111.2C385.796 107.36 393.656 105.44 402.536 105.44C411.296 105.44 418.916 107.36 425.396 111.2C431.876 115.04 436.916 120.32 440.516 127.04C444.116 133.76 445.916 141.38 445.916 149.9C445.916 158.66 443.996 166.58 440.156 173.66C436.436 180.62 431.216 186.14 424.496 190.22C417.776 194.18 409.916 196.16 400.916 196.16ZM377.696 149.72C377.696 161.96 379.676 171.68 383.636 178.88C387.716 185.96 393.776 189.5 401.816 189.5C409.496 189.5 415.376 186.14 419.456 179.42C423.536 172.58 425.576 163.46 425.576 152.06C425.576 139.94 423.536 130.28 419.456 123.08C415.376 115.88 409.436 112.28 401.636 112.28C393.956 112.28 388.016 115.58 383.816 122.18C379.736 128.78 377.696 137.96 377.696 149.72ZM509.948 194.18C506.468 194.18 502.928 194.12 499.328 194C495.728 193.88 491.708 193.82 487.268 193.82C482.828 193.82 478.868 193.88 475.388 194C471.908 194.12 468.368 194.18 464.768 194.18C464.408 192.26 464.408 190.4 464.768 188.6C468.848 188.36 471.848 188 473.768 187.52C475.688 186.92 476.948 185.72 477.548 183.92C478.148 182.12 478.448 179.24 478.448 175.28V85.1C478.448 81.38 478.088 78.62 477.368 76.82C476.768 74.9 475.388 73.58 473.228 72.86C471.188 72.02 468.068 71.42 463.868 71.06C463.508 69.5 463.508 67.88 463.868 66.2C468.668 65.6 473.588 64.7 478.628 63.5C483.668 62.18 488.828 60.38 494.108 58.1L497.168 59.18C497.048 61.82 496.928 64.82 496.808 68.18C496.808 71.54 496.808 75.2 496.808 79.16V173.48C496.808 178.16 497.048 181.52 497.528 183.56C498.128 185.6 499.328 186.92 501.128 187.52C503.048 188 505.988 188.36 509.948 188.6C510.188 190.4 510.188 192.26 509.948 194.18ZM590.667 195.8C582.747 195.8 577.767 191.84 575.727 183.92C567.207 192.08 558.507 196.16 549.627 196.16C543.507 196.16 538.287 194.36 533.967 190.76C529.767 187.04 527.667 181.94 527.667 175.46C527.667 159.62 543.807 149.66 576.087 145.58C576.087 142.7 576.087 139.76 576.087 136.76C576.207 133.76 576.267 130.58 576.267 127.22C576.267 123.02 574.707 119.78 571.587 117.5C568.587 115.1 564.927 113.9 560.607 113.9C557.487 113.9 554.847 114.38 552.687 115.34C552.687 118.1 552.087 120.92 550.887 123.8C549.687 126.68 548.007 129.14 545.847 131.18C543.807 133.1 541.287 134.06 538.287 134.06C535.647 134.06 533.547 133.34 531.987 131.9C530.547 130.34 529.827 128.48 529.827 126.32C529.827 123.44 531.147 120.74 533.787 118.22C536.547 115.58 540.027 113.36 544.227 111.56C548.427 109.64 552.807 108.14 557.367 107.06C561.927 105.98 566.007 105.44 569.607 105.44C574.047 105.44 578.127 106.28 581.847 107.96C585.687 109.52 588.747 111.92 591.027 115.16C593.427 118.28 594.627 122.18 594.627 126.86C594.627 129.74 594.567 133.52 594.447 138.2C594.327 142.76 594.207 147.68 594.087 152.96C594.087 158.12 594.027 163.04 593.907 167.72C593.787 172.4 593.727 176.18 593.727 179.06C593.727 182.9 595.407 184.82 598.767 184.82C600.927 184.82 604.227 184.1 608.667 182.66C609.147 183.26 609.447 183.92 609.567 184.64C609.807 185.36 609.987 186.02 610.107 186.62C607.107 189.86 603.927 192.2 600.567 193.64C597.327 195.08 594.027 195.8 590.667 195.8ZM575.727 179.06L576.087 152.06C565.047 153.5 557.427 155.84 553.227 159.08C549.147 162.32 547.107 166.46 547.107 171.5C547.107 175.7 548.187 178.94 550.347 181.22C552.627 183.38 555.447 184.46 558.807 184.46C560.967 184.46 563.367 183.98 566.007 183.02C568.767 182.06 572.007 180.74 575.727 179.06Z" fill="white"/>
<path d="M77.9999 26.8125C86.3446 26.8115 94.5021 29.2852 101.441 33.9208C108.379 38.5563 113.787 45.1455 116.981 52.8549C120.174 60.5643 121.01 69.0475 119.382 77.2318C117.753 85.416 113.735 92.9335 107.834 98.8336L107.461 99.1781L59.9367 141.267C56.4435 144.826 54.0791 149.336 53.1402 154.234C52.2013 159.131 52.7298 164.196 54.6593 168.794C56.5887 173.392 59.8333 177.318 63.9857 180.079C68.1382 182.839 73.0135 184.312 77.9999 184.312C82.9864 184.312 87.8617 182.839 92.0142 180.079C96.1666 177.318 99.4112 173.392 101.341 168.794C103.27 164.196 103.799 159.131 102.86 154.234C101.921 149.336 99.5564 144.826 96.0632 141.267L93.6164 139.102C92.7853 138.367 92.1071 137.476 91.6205 136.479C91.1338 135.483 90.8482 134.4 90.78 133.293C90.7117 132.186 90.8622 131.076 91.2228 130.028C91.5834 128.979 92.1471 128.011 92.8816 127.18C93.6161 126.349 94.5071 125.671 95.5038 125.184C96.5004 124.698 97.5831 124.412 98.6902 124.344C99.7972 124.275 100.907 124.426 101.956 124.787C103.004 125.147 103.972 125.711 104.803 126.445L107.461 128.801L107.834 129.145C113.733 135.046 117.75 142.563 119.377 150.746C121.005 158.929 120.169 167.412 116.975 175.12C113.782 182.828 108.375 189.417 101.437 194.052C94.4998 198.687 86.3435 201.161 77.9999 201.161C69.6564 201.161 61.5001 198.687 54.5626 194.052C47.625 189.417 42.2177 182.828 39.0245 175.12C35.8312 167.412 34.9953 158.929 36.6225 150.746C38.2498 142.563 42.267 135.046 48.1664 129.145L48.539 128.801L96.0632 86.7117C99.5564 83.1534 101.921 78.6425 102.86 73.7453C103.799 68.8481 103.27 63.7826 101.341 59.1846C99.4112 54.5866 96.1666 50.661 92.0142 47.9003C87.8617 45.1395 82.9864 43.6668 77.9999 43.6668C73.0135 43.6668 68.1382 45.1395 63.9857 47.9003C59.8333 50.661 56.5887 54.5866 54.6593 59.1846C52.7298 63.7826 52.2013 68.8481 53.1402 73.7453C54.0791 78.6425 56.4435 83.1534 59.9367 86.7117L62.3835 88.8774C63.2146 89.6119 63.8928 90.5029 64.3794 91.4995C64.8661 92.4962 65.1517 93.5789 65.2199 94.6859C65.2882 95.7929 65.1377 96.9025 64.7771 97.9514C64.4165 99.0003 63.8528 99.9678 63.1183 100.799C62.3838 101.63 61.4928 102.308 60.4961 102.795C59.4995 103.281 58.4168 103.567 57.3097 103.635C56.2027 103.703 55.0931 103.553 54.0443 103.192C52.9954 102.832 52.0278 102.268 51.1968 101.534L48.539 99.1781L48.1664 98.8336C42.2653 92.9335 38.2465 85.416 36.6183 77.2318C34.9901 69.0475 35.8255 60.5643 39.019 52.8549C42.2125 45.1455 47.6206 38.5563 54.5592 33.9208C61.4978 29.2852 69.6553 26.8115 77.9999 26.8125Z" fill="white"/>
</g>
<defs>
<clipPath id="clip0_39_31">
<rect width="623" height="237" fill="white"/>
</clipPath>
</defs>
</svg>
